# xmcd
#
# Track frame offsets: 
#        150
#        12266
#        29025
#        45015
#        58812
#        75938
#        93922
#        108231
#        124708
#        144004
#        160954
#        177184
#
# Disc length: 2679 seconds
#
# Revision: 2
# Processed by: cddbd v1.5.2PL0 Copyright (c) Steve Scherf et al.
# Submitted via: ExactAudioCopy v1.0b3
#
DISCID=860a750c
DTITLE=Shania Twain - In The Beginning 1989-1990
DYEAR=2001
DGENRE=Country
TTITLE0=Bite My Lip
TTITLE1=Send It With Love
TTITLE2=For The Love Of Him
TTITLE3=Wild And Wicked
TTITLE4=Once Over
TTITLE5=Hate To Love
TTITLE6=Half Breed
TTITLE7=Luv Eyes
TTITLE8=I Lost My Heart When I Found You
TTITLE9=The Rhythm Made To Do It
TTITLE10=Two Hearts One Love
TTITLE11=For The Love Of Him (Dance Mix)
EXTD=YEAR: 2001
EXTT0=
EXTT1=
EXTT2=
EXTT3=
EXTT4=
EXTT5=
EXTT6=
EXTT7=
EXTT8=
EXTT9=
EXTT10=
EXTT11=
PLAYORDER=
